# xmcd CD database file
#
# Track frame offsets:
#	150
#	21775
#	45675
#	66775
#	83950
#	100850
#	112500
#	126650
#	142700
#	163875
#
# Disc length: 2568 seconds
#
# Revision: 2
# Processed by: cddbd v1.5.1PL2 Copyright (c) Steve Scherf et al.
# Submitted via: CDex 1.51
#
DISCID=7e0a060a
DTITLE=Buddy Guy and Junior Wells - Buddy Guy and Junior Wells
DYEAR=1900
DGENRE=Blues
TTITLE0=Buddy's Blues
TTITLE1=Blue Monday
TTITLE2=Everyday
TTITLE3=Woman Blues
TTITLE4=Satisfaction
TTITLE5=Messin' With The Kid
TTITLE6=No Use Cryin'
TTITLE7=Just To Be With You
TTITLE8=Junior's Shuffle
TTITLE9=Out Of Sight
EXTD=
EXTT0=
EXTT1=
EXTT2=
EXTT3=
EXTT4=
EXTT5=
EXTT6=
EXTT7=
EXTT8=
EXTT9=
PLAYORDER=
